<?xml version="1.0" encoding="iso-8859-1"?>
<svg fill="#5a5a5a" version="1.1" id="Capa_1" xmlns="http://www.w3.org/2000/svg" xmlns:xlink="http://www.w3.org/1999/xlink" x="0px" y="0px"
	 viewBox="0 0 384.97 384.97" style="enable-background:new 0 0 384.97 384.97;" xml:space="preserve">
<g>
	<g id="Fullscreen_Exit">
	  <path transform="rotate(179.53941345214844 319.031982421875,90.40800476074217) " id="svg_2" d="m264.943,156.665l108.273,0c6.833,0 11.934,-5.39 11.934,-12.211c0,-6.833 -5.101,-11.85 -11.934,-11.838l-96.242,0l0,-96.435c0,-6.833 -5.197,-12.03 -12.03,-12.03s-12.03,5.197 -12.03,12.03l0,108.273c0,0.036 0.012,0.06 0.012,0.084c0,0.036 -0.012,0.06 -0.012,0.096c-0.001,6.713 5.316,12.043 12.029,12.031z"/>
	  <path transform="rotate(179.92543029785156 66.25650024414062,90.36500549316406) " id="svg_3" d="m120.291,24.247c-6.821,0 -11.838,5.113 -11.838,11.934l0,96.242l-96.423,0c-6.833,0 -12.03,5.197 -12.03,12.03c0,6.833 5.197,12.03 12.03,12.03l108.273,0c0.036,0 0.06,-0.012 0.084,-0.012c0.036,0 0.06,0.012 0.096,0.012c6.713,0 12.03,-5.317 12.03,-12.03l0,-108.272c0.001,-6.821 -5.389,-11.922 -12.222,-11.934z"/>
	  <path transform="rotate(180 66.29900360107423,294.9230041503906) " id="svg_4" d="m120.387,228.666l-108.272,0c-6.833,0.012 -11.934,5.39 -11.934,12.223c0,6.833 5.101,11.85 11.934,11.838l96.242,0l0,96.423c0,6.833 5.197,12.03 12.03,12.03c6.833,0 12.03,-5.197 12.03,-12.03l0,-108.273c0,-0.036 -0.012,-0.06 -0.012,-0.084c0,-0.036 0.012,-0.06 0.012,-0.096c0.001,-6.714 -5.317,-12.031 -12.03,-12.031z"/>
	  <path transform="rotate(180 319.073974609375,294.7845153808594) " id="svg_5" d="m373.3,228.666l-108.272,0c-0.036,0 -0.06,0.012 -0.084,0.012c-0.036,0 -0.06,-0.012 -0.096,-0.012c-6.713,0 -12.03,5.317 -12.03,12.03l0,108.273c0,6.833 5.39,11.922 12.223,11.934c6.821,0.012 11.838,-5.101 11.838,-11.922l0,-96.242l96.421,0c6.833,0 12.03,-5.197 12.03,-12.03s-5.196,-12.031 -12.03,-12.043z"/>
	</g>
</g>
</svg>